<svg width="359" height="313" viewBox="0 0 359 313" fill="none" xmlns="http://www.w3.org/2000/svg">
<path d="M25 189.449C11.1929 189.449 0 178.256 0 164.449C0 150.642 11.1929 139.449 25 139.449H275C288.807 139.449 300 150.642 300 164.449C300 178.256 288.807 189.449 275 189.449L25 189.449Z" fill="url(#paint0_linear_508_1087)"/>
<path d="M134.358 43.8416C128.504 31.337 133.895 16.4542 146.4 10.6C158.905 4.7458 173.787 10.137 179.642 22.6416L285.641 249.057C291.496 261.562 286.105 276.444 273.6 282.299C261.095 288.153 246.213 282.762 240.358 270.257L134.358 43.8416Z" fill="url(#paint1_linear_508_1087)"/>
<path d="M211.358 63.8416C205.504 51.337 210.895 36.4542 223.4 30.6C235.905 24.7458 250.787 30.137 256.642 42.6416L362.641 269.057C368.496 281.562 363.105 296.444 350.6 302.299C338.095 308.153 323.213 302.762 317.358 290.257L211.358 63.8416Z" fill="url(#paint2_linear_508_1087)"/>
<defs>
<linearGradient id="paint0_linear_508_1087" x1="0" y1="164.449" x2="300" y2="164.449" gradientUnits="userSpaceOnUse">
<stop stop-color="#25D088"/>
<stop offset="1" stop-color="#38F3FF" stop-opacity="0.39"/>
</linearGradient>
<linearGradient id="paint1_linear_508_1087" x1="146.4" y1="10.6" x2="273.6" y2="282.299" gradientUnits="userSpaceOnUse">
<stop stop-color="#25D088"/>
<stop offset="1" stop-color="#38F3FF" stop-opacity="0.39"/>
</linearGradient>
<linearGradient id="paint2_linear_508_1087" x1="223.4" y1="30.6" x2="350.6" y2="302.299" gradientUnits="userSpaceOnUse">
<stop stop-color="#25D088"/>
<stop offset="1" stop-color="#38F3FF" stop-opacity="0.39"/>
</linearGradient>
</defs>
</svg>
