<svg width="375" height="332" viewBox="0 0 375 332" fill="none" xmlns="http://www.w3.org/2000/svg">
<path d="M104.6 82.8415C98.7458 70.3369 104.137 55.4542 116.642 49.6C129.146 43.7457 144.029 49.1369 149.883 61.6415L255.883 288.057C261.737 300.562 256.346 315.444 243.841 321.299C231.337 327.153 216.454 321.762 210.6 309.257L104.6 82.8415Z" fill="url(#paint0_linear_507_1086)"/>
<path d="M10.6 43.8415C4.74578 31.3369 10.137 16.4542 22.6416 10.6C35.1461 4.74574 50.0289 10.1369 55.8831 22.6415L161.883 249.057C167.737 261.562 162.346 276.444 149.841 282.299C137.337 288.153 122.454 282.762 116.6 270.257L10.6 43.8415Z" fill="url(#paint1_linear_507_1086)"/>
<path d="M99.2415 150.449C85.4344 150.449 74.2415 139.256 74.2415 125.449C74.2415 111.642 85.4344 100.449 99.2415 100.449L349.242 100.449C363.049 100.449 374.242 111.642 374.242 125.449C374.242 139.256 363.049 150.449 349.242 150.449L99.2415 150.449Z" fill="url(#paint2_linear_507_1086)"/>
<defs>
<linearGradient id="paint0_linear_507_1086" x1="116.642" y1="49.6" x2="243.841" y2="321.299" gradientUnits="userSpaceOnUse">
<stop stop-color="#25D088"/>
<stop offset="1" stop-color="#38F3FF" stop-opacity="0.39"/>
</linearGradient>
<linearGradient id="paint1_linear_507_1086" x1="22.6416" y1="10.6" x2="149.841" y2="282.299" gradientUnits="userSpaceOnUse">
<stop stop-color="#25D088"/>
<stop offset="1" stop-color="#38F3FF" stop-opacity="0.39"/>
</linearGradient>
<linearGradient id="paint2_linear_507_1086" x1="74.2415" y1="125.449" x2="374.242" y2="125.449" gradientUnits="userSpaceOnUse">
<stop stop-color="#25D088"/>
<stop offset="1" stop-color="#38F3FF" stop-opacity="0.39"/>
</linearGradient>
</defs>
</svg>
